<svg id="beer-amber" xmlns="http://www.w3.org/2000/svg" xmlns:xlink="http://www.w3.org/1999/xlink" viewBox="0 0 115 185"><defs><style>.cls-1{fill:none;}.cls-2{stroke:#fff;stroke-linecap:round;stroke-miterlimit:10;stroke-width:2px;fill:url(#무제_그라디언트_74);}.cls-3{fill:#fff;}.cls-4{opacity:0.91;fill:url(#무제_그라디언트_70);}.cls-5{fill:#960;isolation:isolate;opacity:0.2;}.cls-6{opacity:0.65;fill:url(#무제_그라디언트_83);}</style><linearGradient id="무제_그라디언트_74" x1="57.5" y1="180" x2="57.5" y2="5" gradientUnits="userSpaceOnUse"><stop offset="0" stop-color="#b00900" stop-opacity="0.8"/><stop offset="1" stop-color="#542700"/></linearGradient><linearGradient id="무제_그라디언트_70" x1="58.35" y1="119.11" x2="58.35" y2="73.66" gradientUnits="userSpaceOnUse"><stop offset="0" stop-color="#fff" stop-opacity="0.2"/><stop offset="1" stop-color="#fff"/></linearGradient><radialGradient id="무제_그라디언트_83" cx="57.5" cy="12.49" r="23.52" gradientTransform="translate(-18.38 10.46) scale(1.32 0.16)" gradientUnits="userSpaceOnUse"><stop offset="0" stop-color="#9c4209"/><stop offset="0.17" stop-color="#a14c16" stop-opacity="0.96"/><stop offset="0.38" stop-color="#b0693b" stop-opacity="0.84"/><stop offset="0.62" stop-color="#c99879" stop-opacity="0.64"/><stop offset="0.87" stop-color="#ebdace" stop-opacity="0.36"/><stop offset="1" stop-color="#fff" stop-opacity="0.2"/></radialGradient></defs><rect class="cls-1" width="115" height="185"/><g id="그룹_3" data-name="그룹 3"><path id="패스_1" data-name="패스 1" class="cls-2" d="M106.2,11.47C98.41,5.42,57.5,5,57.5,5s-40.91.42-48.7,6.47S2.18,29.2,3.34,35.25,20.88,168.42,20.88,168.42s3.5,8.21,16.36,9.94A154.43,154.43,0,0,0,57.5,180a154.43,154.43,0,0,0,20.26-1.64c12.86-1.73,16.36-9.94,16.36-9.94S110.49,41.3,111.65,35.25,114,17.52,106.2,11.47Z"/><path id="패스_2" data-name="패스 2" class="cls-3" d="M109.81,44.49c1-6.55,1.64-10.92,1.84-11.89,1.17-5.52,2.34-16.17-5.45-21.7S57.5,5,57.5,5s-40.91.38-48.7,5.9S2.18,27.08,3.35,32.6c.2,1,.87,5.34,1.84,11.89C5.19,44.49,51.47,60.2,109.81,44.49Z"/></g><circle id="타원_3" data-name="타원 3" class="cls-4" cx="58.35" cy="96.39" r="22.72"/><circle id="타원_4" data-name="타원 4" class="cls-5" cx="58.35" cy="96.96" r="17.48"/><ellipse class="cls-6" cx="57.5" cy="12.49" rx="43.56" ry="5.11"/></svg>