<svg id="cocktail-blue" xmlns="http://www.w3.org/2000/svg" xmlns:xlink="http://www.w3.org/1999/xlink" viewBox="0 0 115 185"><defs><style>.cls-1,.cls-4{fill:none;}.cls-2{fill:url(#무제_그라디언트_84);}.cls-3{fill:#fff;isolation:isolate;opacity:0.88;}.cls-4{stroke:#fff;stroke-miterlimit:10;stroke-width:2.34px;}.cls-5{fill:url(#무제_그라디언트_2);}</style><linearGradient id="무제_그라디언트_84" x1="-887.13" y1="624.34" x2="-886.74" y2="623.95" gradientTransform="matrix(27.07, 0, 0, -26.47, 24065.49, 16572.7)" gradientUnits="userSpaceOnUse"><stop offset="0" stop-color="#fff08b"/><stop offset="1" stop-color="#fff" stop-opacity="0.59"/></linearGradient><linearGradient id="무제_그라디언트_2" x1="-894.34" y1="630.99" x2="-894.34" y2="629.82" gradientTransform="matrix(54.73, 0, 0, -108.7, 49007.22, 68641.04)" gradientUnits="userSpaceOnUse"><stop offset="0" stop-color="#fbeebc" stop-opacity="0.47"/><stop offset="1" stop-color="#30a09b"/></linearGradient></defs><rect class="cls-1" width="115" height="185"/><g id="tall"><path id="패스_26" data-name="패스 26" class="cls-2" d="M32.91,59.51,61,32.76a1.61,1.61,0,0,1,2.28.05,1.55,1.55,0,0,1,.42.81c.87,4.46,1.23,13.74-7.58,22.55-9,9-18.32,7.46-22.58,6a1.61,1.61,0,0,1-1-2A1.66,1.66,0,0,1,32.91,59.51Z"/><path id="패스_27" data-name="패스 27" class="cls-3" d="M78.61,8.44,47,152.84s1.59,4.26,5,1L83.6,9.43S82.43,6,78.61,8.44Z"/><rect id="사각형_5" data-name="사각형 5" class="cls-4" x="25.47" y="25.84" width="64.06" height="150.42" rx="4.68"/><g id="그룹_6" data-name="그룹 6"><path id="패스_28" data-name="패스 28" class="cls-1" d="M25.47,170.16v.8a5.25,5.25,0,0,0,.27,1.66Z"/><path id="패스_29" data-name="패스 29" class="cls-1" d="M79.13,60.12A26.33,26.33,0,0,0,89.53,58V31.14a5.3,5.3,0,0,0-5.3-5.3H30.77a5.3,5.3,0,0,0-5.3,5.3V60c9.89-1,16.62-11,27.28-11C64.19,49,68.81,59.73,79.13,60.12Z"/><path id="패스_30" data-name="패스 30" class="cls-5" d="M30.77,176.26H84.22a5.3,5.3,0,0,0,5.31-5.3V58a26.4,26.4,0,0,1-10.4,2.13C68.8,59.73,64.18,49,52.75,49c-10.66,0-17.4,10-27.28,11V170.16l.26,2.46A5.31,5.31,0,0,0,30.77,176.26Z"/></g></g></svg>