<svg id="cocktail-blue" xmlns="http://www.w3.org/2000/svg" xmlns:xlink="http://www.w3.org/1999/xlink" viewBox="0 0 115 185"><defs><style>.cls-1{fill:none;}.cls-2{opacity:0.9;}.cls-3{fill:#fff;}.cls-4{fill:url(#무제_그라디언트_85);}.cls-5{isolation:isolate;opacity:0.8;fill:url(#무제_그라디언트_89);}.cls-6{fill:url(#무제_그라디언트_86);}</style><linearGradient id="무제_그라디언트_85" x1="-896.85" y1="629.55" x2="-896.85" y2="628.55" gradientTransform="matrix(81.09, 0, 0, -75.07, 72786.03, 47354.84)" gradientUnits="userSpaceOnUse"><stop offset="0" stop-color="#e5d256" stop-opacity="0.9"/><stop offset="1" stop-color="#d59412" stop-opacity="0.31"/></linearGradient><linearGradient id="무제_그라디언트_89" x1="-894.28" y1="618.86" x2="-894.28" y2="617.86" gradientTransform="matrix(52.18, 0, 0, -18.39, 46723.18, 11530.36)" gradientUnits="userSpaceOnUse"><stop offset="0" stop-color="#fff" stop-opacity="0.2"/><stop offset="1" stop-color="#fff" stop-opacity="0.8"/></linearGradient><linearGradient id="무제_그라디언트_86" x1="-890.14" y1="624.54" x2="-889.81" y2="624.21" gradientTransform="matrix(33.02, 0, 0, -32.28, 29465.24, 20277.64)" gradientUnits="userSpaceOnUse"><stop offset="0" stop-color="#fff" stop-opacity="0.5"/><stop offset="1" stop-color="#fef975" stop-opacity="0.59"/></linearGradient></defs><rect class="cls-1" width="115" height="185"/><g id="oldfashioned" class="cls-2"><g id="그룹_9" data-name="그룹 9"><g id="그룹_8" data-name="그룹 8"><g id="패스_31" data-name="패스 31"><path class="cls-1" d="M63.71,77.6H21.07A5,5,0,0,0,16,82.45a5.11,5.11,0,0,0,0,.78l12.85,82a5,5,0,0,0,5,4.16H83.08a5,5,0,0,0,5-4.16l12.85-82a5,5,0,0,0-4.23-5.59,5.1,5.1,0,0,0-.78,0Z"/><path class="cls-3" d="M21.07,77.6a5,5,0,0,0-5,5.63l12.85,82a5,5,0,0,0,5,4.16H83.08a5,5,0,0,0,5-4.16l12.85-82a5,5,0,0,0-5-5.63H21.07m0-2H95.93a7.11,7.11,0,0,1,5.42,2.47,6.82,6.82,0,0,1,1.57,5.47l-12.86,82a6.85,6.85,0,0,1-2.4,4.21,7.18,7.18,0,0,1-4.58,1.64H33.92a7.16,7.16,0,0,1-4.58-1.64,6.86,6.86,0,0,1-2.41-4.21l-12.85-82a6.77,6.77,0,0,1,1.56-5.47A7.14,7.14,0,0,1,21.07,75.6Z"/></g><path id="교차_1" data-name="교차 1" class="cls-4" d="M63.71,169.36H33.92a5,5,0,0,1-5-4.16L18,95.33a5.16,5.16,0,0,1,3.12-1H95.93a5.23,5.23,0,0,1,3.12,1l-11,69.88a5,5,0,0,1-5,4.16Z"/><path id="패스_33" data-name="패스 33" class="cls-5" d="M36.8,165.48H80.19A4.38,4.38,0,0,0,84.62,162l2.13-12.06a2.62,2.62,0,0,0-2.48-2.81H33.15a2.7,2.7,0,0,0-2.91,2.43,1.7,1.7,0,0,0,0,.39L32.38,162A4.37,4.37,0,0,0,36.8,165.48Z"/><path id="패스_34" data-name="패스 34" class="cls-3" d="M93.41,55l-39,81.85s1.11,5.63,6,2.26l39-81.86S98.66,52.74,93.41,55Z"/></g></g><path id="패스_36" data-name="패스 36" class="cls-6" d="M60,133.74l29.24-27.88a1.69,1.69,0,0,1,2.38.06,1.65,1.65,0,0,1,.43.84c.91,4.65,1.28,14.31-7.9,23.49-9.37,9.37-19.08,7.78-23.53,6.3a1.67,1.67,0,0,1-.62-2.81Z"/></g></svg>